<svg version="1.0" xmlns="http://www.w3.org/2000/svg"
 width="3508.000000pt" height="2481.000000pt" viewBox="0 0 3508.000000 2481.000000"
 preserveAspectRatio="xMidYMid meet">

<g transform="translate(0.000000,2481.000000) scale(0.100000,-0.100000)"
fill="#000000" stroke="none">
<path d="M20210 17446 c-550 -97 -1318 -494 -2340 -1211 -242 -170 -664 -482
-849 -628 -94 -74 -115 -87 -126 -76 -7 8 -319 409 -694 891 -374 482 -695
887 -713 901 -155 117 -356 110 -494 -15 -30 -28 -67 -73 -80 -101 -15 -29
-144 -496 -317 -1151 -272 -1031 -291 -1106 -290 -1186 0 -119 27 -185 107
-266 82 -82 148 -108 271 -109 80 0 97 4 155 31 74 35 146 102 178 168 13 25
106 361 208 748 101 387 187 711 190 721 4 13 128 -141 455 -560 247 -318 449
-580 449 -583 0 -3 -55 -56 -122 -117 -166 -151 -642 -633 -809 -818 -437
-487 -806 -959 -1136 -1455 -214 -323 -436 -701 -465 -793 -60 -192 41 -396
229 -467 47 -18 75 -21 148 -18 78 3 100 8 155 35 36 18 81 49 102 70 20 21
80 115 133 208 364 638 811 1247 1394 1900 137 153 824 845 840 845 8 0 419
-522 427 -544 3 -7 -60 -79 -139 -161 -314 -329 -941 -1087 -1343 -1625 -590
-790 -696 -946 -835 -1235 -81 -170 -129 -297 -170 -453 -40 -150 -51 -358
-25 -462 27 -107 90 -224 159 -294 250 -254 671 -254 1307 -1 895 355 1864
957 2696 1671 l132 113 24 -27 c14 -15 319 -385 678 -822 359 -437 676 -819
704 -848 28 -29 76 -65 106 -80 50 -24 66 -27 165 -27 100 0 115 3 165 27 112
55 191 164 211 289 6 40 9 541 7 1349 l-3 1285 -31 65 c-39 82 -101 144 -184
184 -59 28 -74 31 -160 31 -87 0 -101 -3 -161 -32 -80 -39 -150 -111 -187
-191 l-27 -57 -5 -758 -5 -758 -823 1000 c-453 550 -836 1010 -852 1021 -16
11 -55 33 -87 48 -50 23 -71 27 -148 27 -80 -1 -98 -4 -157 -32 -82 -39 -145
-100 -184 -179 -27 -54 -29 -68 -29 -169 0 -107 1 -112 35 -172 19 -34 125
-171 235 -304 110 -134 206 -251 213 -261 16 -22 17 -21 -247 -241 -404 -337
-875 -669 -1323 -930 -501 -293 -1092 -560 -1399 -632 l-60 -14 7 32 c20 96
140 343 251 519 109 173 220 329 519 728 524 700 1069 1360 1464 1772 241 252
306 330 349 418 33 69 35 81 35 165 0 69 -5 103 -22 145 -16 39 -121 182 -357
485 -184 237 -335 433 -335 436 0 9 164 137 415 326 1194 895 2214 1463 2628
1463 63 0 68 -2 77 -26 15 -38 12 -155 -5 -240 -53 -255 -228 -620 -477 -992
-295 -442 -663 -868 -1179 -1367 -198 -191 -214 -220 -214 -375 0 -93 3 -112
27 -162 37 -79 98 -142 177 -181 61 -30 73 -32 166 -32 151 0 185 19 407 231
924 883 1605 1856 1802 2575 96 350 87 663 -24 895 -98 203 -261 340 -482 405
-93 27 -370 36 -488 15z"/>
<path d="M10300 7190 c0 -467 3 -850 8 -850 4 0 106 99 226 219 l219 219 215
-219 214 -219 327 0 326 0 -380 380 -380 380 368 368 c202 202 367 370 367
375 0 4 -138 7 -307 7 l-308 0 -252 -252 -253 -253 0 160 0 160 -188 188
c-103 103 -191 187 -195 187 -4 0 -7 -382 -7 -850z"/>
<path d="M12700 7920 c-326 -69 -569 -301 -647 -616 -23 -96 -23 -296 1 -389
44 -171 160 -352 293 -454 79 -62 222 -133 309 -155 150 -38 343 -39 486 -1
314 82 550 330 614 645 22 113 15 295 -16 395 -98 310 -348 527 -674 584 -91
17 -269 12 -366 -9z m341 -306 c115 -34 200 -100 271 -209 112 -171 111 -419
-1 -594 -76 -117 -206 -203 -340 -224 -242 -37 -481 135 -547 395 -22 84 -15
232 14 313 56 153 173 269 320 316 73 23 209 25 283 3z"/>
<path d="M20360 7920 c-326 -69 -569 -301 -647 -616 -23 -96 -23 -296 1 -389
44 -171 160 -352 293 -454 79 -62 222 -133 309 -155 150 -38 343 -39 486 -1
314 82 550 330 614 645 22 113 15 295 -16 395 -98 310 -348 527 -674 584 -91
17 -269 12 -366 -9z m341 -306 c115 -34 200 -100 271 -209 112 -171 111 -419
-1 -594 -76 -117 -206 -203 -340 -224 -242 -37 -481 135 -547 395 -22 84 -15
232 14 313 56 153 173 269 320 316 73 23 209 25 283 3z"/>
<path d="M14240 7110 l0 -810 175 0 175 0 2 523 3 523 388 -523 389 -523 164
0 164 0 0 810 0 810 -170 0 -170 0 -2 -529 -3 -529 -390 527 -391 526 -167 3
-167 2 0 -810z"/>
<path d="M16300 7110 l0 -810 180 0 180 0 0 310 0 310 365 0 365 0 0 150 0
150 -365 0 -365 0 0 205 0 205 400 0 400 0 0 145 0 145 -580 0 -580 0 0 -810z"/>
<path d="M17910 7111 l0 -811 180 0 180 0 0 235 0 235 187 -2 188 -3 129 -232
128 -233 211 0 c199 0 209 1 195 18 -20 23 -339 514 -336 516 46 25 130 88
164 124 148 154 186 457 83 669 -38 76 -141 174 -229 215 -147 70 -157 71
-642 75 l-438 4 0 -810z m854 489 c109 -42 166 -129 166 -255 0 -111 -47 -198
-129 -239 -70 -36 -146 -46 -348 -46 l-183 0 0 286 0 287 218 -5 c194 -5 223
-8 276 -28z"/>
<path d="M21910 7110 l0 -810 175 0 175 0 2 523 3 523 388 -523 389 -523 164
0 164 0 0 810 0 810 -170 0 -170 0 -2 -529 -3 -529 -390 527 -391 526 -167 3
-167 2 0 -810z"/>
<path d="M23800 7770 l0 -150 245 0 245 0 0 -660 0 -660 185 0 185 0 0 660 0
660 245 0 245 0 0 150 0 150 -675 0 -675 0 0 -150z"/>
</g>
</svg>
